# This file uses centimeters as units for non-parametric coordinates.

mtllib cilinderkwartrescaled.mtl
g default
v 0.000000 0.000000 -1.000001
v -0.130526 0.000000 -0.991446
v -0.258819 0.000000 -0.965927
v -0.382684 0.000000 -0.923881
v -0.500000 0.000000 -0.866026
v -0.608762 0.000000 -0.793354
v -0.707107 0.000000 -0.707108
v -0.793354 0.000000 -0.608762
v -0.866026 0.000000 -0.500001
v -0.923880 0.000000 -0.382684
v -0.965927 0.000000 -0.258819
v -0.991446 0.000000 -0.130526
v -1.000001 0.000000 -0.000000
v 0.000000 2.500000 -1.000001
v -0.130526 2.500000 -0.991446
v -0.258819 2.500000 -0.965927
v -0.382684 2.500000 -0.923881
v -0.500000 2.500000 -0.866026
v -0.608762 2.500000 -0.793354
v -0.707107 2.500000 -0.707108
v -0.793354 2.500000 -0.608762
v -0.866026 2.500000 -0.500001
v -0.923880 2.500000 -0.382684
v -0.965927 2.500000 -0.258819
v -0.991446 2.500000 -0.130526
v -1.000001 2.500000 -0.000000
v -0.000000 -0.000000 0.000000
v -0.000000 2.500000 0.000000
vt 0.500000 -0.000000
vt 0.479605 0.001337
vt 0.459560 0.005324
vt 0.440206 0.011894
vt 0.421875 0.020933
vt 0.404881 0.032288
vt 0.389514 0.045764
vt 0.376038 0.061131
vt 0.364683 0.078125
vt 0.355644 0.096456
vt 0.349074 0.115809
vt 0.345087 0.135855
vt 0.343750 0.156250
vt 0.343750 0.843750
vt 0.345087 0.864145
vt 0.349074 0.884190
vt 0.355644 0.903544
vt 0.364683 0.921875
vt 0.376038 0.938869
vt 0.389514 0.954235
vt 0.404881 0.967712
vt 0.421875 0.979067
vt 0.440206 0.988106
vt 0.459560 0.994676
vt 0.479605 0.998663
vt 0.500000 1.000000
vt 0.500000 0.150000
vt 0.500000 0.837500
vn -0.000000 -1.000000 -0.000000
vn -0.000000 -1.000000 -0.000000
vn -0.000000 -1.000000 -0.000000
vn -0.000000 -1.000000 -0.000000
vn -0.000000 -1.000000 0.000000
vn -0.000000 -1.000000 0.000000
vn -0.000000 -1.000000 -0.000000
vn -0.000000 -1.000000 -0.000000
vn -0.000000 -1.000000 -0.000000
vn -0.000000 -1.000000 -0.000001
vn -0.000000 -1.000000 0.000000
vn -0.000000 -1.000000 0.000000
vn -0.000000 -1.000000 0.000000
vn -0.000000 -1.000000 0.000000
vn 0.000000 1.000000 0.000000
vn 0.000000 1.000000 0.000000
vn 0.000000 1.000000 0.000000
vn 0.000000 1.000000 0.000000
vn 0.000000 1.000000 0.000001
vn 0.000000 1.000000 0.000001
vn 0.000000 1.000000 -0.000000
vn 0.000000 1.000000 0.000000
vn 0.000000 1.000000 0.000000
vn 0.000000 1.000000 0.000000
vn 0.000000 1.000000 0.000000
vn 0.000000 1.000000 -0.000001
vn 0.000000 1.000000 -0.000001
vn 0.000000 1.000000 0.000000
vn 1.000000 0.000000 0.000001
vn 1.000000 0.000000 0.000001
vn 1.000000 0.000000 0.000001
vn 1.000000 0.000000 0.000001
vn -0.000000 -0.000000 1.000000
vn -0.000000 -0.000000 1.000000
vn -0.000000 -0.000000 1.000000
vn -0.000000 -0.000000 1.000000
s 1
g pCylinder4
usemtl initialShadingGroup
f 2/2/1 1/1/2 27/27/3
f 3/3/4 2/2/1 27/27/3
f 4/4/5 3/3/4 27/27/3
f 5/5/6 4/4/5 27/27/3
f 6/6/7 5/5/6 27/27/3
f 7/7/8 6/6/7 27/27/3
f 8/8/9 7/7/8 27/27/3
f 9/9/10 8/8/9 27/27/3
f 10/10/11 9/9/10 27/27/3
f 11/11/12 10/10/11 27/27/3
f 12/12/13 11/11/12 27/27/3
f 13/13/14 12/12/13 27/27/3
s 2
f 14/26/15 15/25/16 28/28/17
f 15/25/16 16/24/18 28/28/17
f 16/24/18 17/23/19 28/28/17
f 17/23/19 18/22/20 28/28/17
f 18/22/20 19/21/21 28/28/17
f 19/21/21 20/20/22 28/28/17
f 20/20/22 21/19/23 28/28/17
f 21/19/23 22/18/24 28/28/17
f 22/18/24 23/17/25 28/28/17
f 23/17/25 24/16/26 28/28/17
f 24/16/26 25/15/27 28/28/17
f 25/15/27 26/14/28 28/28/17
s off
f 27/27/29 1/1/30 14/26/31 28/28/32
f 13/13/33 27/27/34 28/28/35 26/14/36
g default
v 0.000000 0.000000 -1.000001
v -0.130526 0.000000 -0.991446
v 0.000000 2.500000 -1.000001
v -0.130526 2.500000 -0.991446
v -0.258819 0.000000 -0.965927
v -0.258819 2.500000 -0.965927
v -0.382684 0.000000 -0.923881
v -0.382684 2.500000 -0.923881
v -0.500000 0.000000 -0.866026
v -0.500000 2.500000 -0.866026
v -0.608762 0.000000 -0.793354
v -0.608762 2.500000 -0.793354
v -0.707107 0.000000 -0.707108
v -0.707107 2.500000 -0.707108
v -0.793354 0.000000 -0.608762
v -0.793354 2.500000 -0.608762
v -0.866026 0.000000 -0.500001
v -0.866026 2.500000 -0.500001
v -0.923880 0.000000 -0.382684
v -0.923880 2.500000 -0.382684
v -0.965927 0.000000 -0.258819
v -0.965927 2.500000 -0.258819
v -0.991446 0.000000 -0.130526
v -0.991446 2.500000 -0.130526
v -1.000001 0.000000 -0.000000
v -1.000001 2.500000 -0.000000
vt 1.250032 0.000000
vt 1.294830 0.000000
vt 1.294830 1.000000
vt 1.250032 1.000000
vt 1.347988 0.000000
vt 1.347988 1.000000
vt 1.414085 1.000000
vt -0.499968 0.000000
vt -0.499968 1.000000
vt -0.386955 0.000000
vt -0.386955 1.000000
vt -0.249968 0.000000
vt -0.249968 1.000000
vt -0.112981 0.000000
vt -0.112981 1.000000
vt 0.000032 0.000000
vt 0.000032 1.000000
vt 0.085979 0.000000
vt 0.085979 1.000000
vt 0.152075 0.000000
vt 0.152075 1.000000
vt 0.205233 0.000000
vt 0.205233 1.000000
vt 0.250032 0.000000
vt 0.250032 1.000000
vt 1.414085 0.000000
vt 1.500032 0.000000
vt 1.500032 1.000000
vn -0.065404 -0.000000 -0.997859
vn -0.130526 -0.000000 -0.991445
vn -0.130526 -0.000000 -0.991445
vn -0.065404 -0.000000 -0.997859
vn -0.258819 0.000000 -0.965926
vn -0.258819 0.000000 -0.965926
vn -0.382683 0.000000 -0.923880
vn -0.382683 0.000000 -0.923880
vn -0.500000 0.000000 -0.866026
vn -0.500000 0.000000 -0.866026
vn -0.608761 0.000000 -0.793354
vn -0.608761 0.000000 -0.793354
vn -0.707107 0.000000 -0.707107
vn -0.707107 0.000000 -0.707107
vn -0.793353 0.000000 -0.608761
vn -0.793353 0.000000 -0.608761
vn -0.866026 0.000000 -0.500000
vn -0.866026 0.000000 -0.500000
vn -0.923880 0.000000 -0.382684
vn -0.923880 0.000000 -0.382684
vn -0.965926 0.000000 -0.258819
vn -0.965926 0.000000 -0.258819
vn -0.991445 0.000000 -0.130525
vn -0.991445 0.000000 -0.130525
vn -0.997859 0.000000 -0.065403
vn -0.997859 0.000000 -0.065403
s 1
g pCylinder3
usemtl initialShadingGroup
f 29/29/37 30/30/38 32/31/39 31/32/40
f 30/30/38 33/33/41 34/34/42 32/31/39
f 33/33/41 35/54/43 36/35/44 34/34/42
f 35/54/43 37/55/45 38/56/46 36/35/44
f 37/36/45 39/38/47 40/39/48 38/37/46
f 39/38/47 41/40/49 42/41/50 40/39/48
f 41/40/49 43/42/51 44/43/52 42/41/50
f 43/42/51 45/44/53 46/45/54 44/43/52
f 45/44/53 47/46/55 48/47/56 46/45/54
f 47/46/55 49/48/57 50/49/58 48/47/56
f 49/48/57 51/50/59 52/51/60 50/49/58
f 51/50/59 53/52/61 54/53/62 52/51/60
