# This file uses centimeters as units for non-parametric coordinates.

mtllib cilinderhalfrescaled.mtl
g default
v -0.000001 0.000000 1.000001
v 0.130525 0.000000 0.991446
v -0.000001 2.500000 1.000001
v 0.130525 2.500000 0.991446
v 0.258818 0.000000 0.965927
v 0.258818 2.500000 0.965927
v 0.382683 0.000000 0.923880
v 0.382683 2.500000 0.923880
v 0.499999 0.000000 0.866026
v 0.499999 2.500000 0.866026
v 0.608761 0.000000 0.793354
v 0.608761 2.500000 0.793354
v 0.707106 0.000000 0.707107
v 0.707106 2.500000 0.707107
v 0.793353 0.000000 0.608762
v 0.793353 2.500000 0.608762
v 0.866025 0.000000 0.500000
v 0.866025 2.500000 0.500000
v 0.923879 0.000000 0.382684
v 0.923879 2.500000 0.382684
v 0.965926 0.000000 0.258819
v 0.965926 2.500000 0.258819
v 0.991445 0.000000 0.130526
v 0.991445 2.500000 0.130526
v 1.000000 0.000000 -0.000000
v 0.991445 0.000000 -0.130527
v 1.000000 2.500000 -0.000000
v 0.991445 2.500000 -0.130527
v 0.965926 0.000000 -0.258820
v 0.965926 2.500000 -0.258820
v 0.923880 0.000000 -0.382684
v 0.923880 2.500000 -0.382684
v 0.866025 0.000000 -0.500001
v 0.866025 2.500000 -0.500001
v 0.793353 0.000000 -0.608762
v 0.793353 2.500000 -0.608762
v 0.707107 0.000000 -0.707108
v 0.707107 2.500000 -0.707108
v 0.608761 0.000000 -0.793355
v 0.608761 2.500000 -0.793355
v 0.500000 0.000000 -0.866027
v 0.500000 2.500000 -0.866027
v 0.382683 0.000000 -0.923881
v 0.382683 2.500000 -0.923881
v 0.258818 0.000000 -0.965927
v 0.258818 2.500000 -0.965927
v 0.130526 0.000000 -0.991446
v 0.130525 2.500000 -0.991446
v 0.000000 0.000000 -1.000001
v 0.000000 2.500000 -1.000001
v -0.000001 0.000000 -0.000000
v -0.000001 2.499999 -0.000000
vt 1.250032 0.000000
vt 1.294830 0.000000
vt 1.294830 1.000000
vt 1.250032 1.000000
vt 1.347988 0.000000
vt 1.347988 1.000000
vt 1.414085 1.000000
vt -0.499968 1.000000
vt -0.386955 0.000000
vt -0.386955 1.000000
vt -0.249968 0.000000
vt -0.249968 1.000000
vt -0.112981 0.000000
vt -0.112981 1.000000
vt 0.000032 0.000000
vt 0.000032 1.000000
vt 0.085979 0.000000
vt 0.085979 1.000000
vt 0.152075 0.000000
vt 0.152075 1.000000
vt 0.205233 0.000000
vt 0.205233 1.000000
vt 1.414085 0.000000
vt 1.500032 0.000000
vt 1.250032 0.000000
vt 1.294830 0.000000
vt 1.294830 1.000000
vt 1.250032 1.000000
vt 1.347988 0.000000
vt 1.347988 1.000000
vt 1.414085 0.000000
vt 1.414085 1.000000
vt 1.500032 0.000000
vt -0.386955 0.000000
vt -0.386955 1.000000
vt -0.499968 1.000000
vt -0.249968 0.000000
vt -0.249968 1.000000
vt -0.112981 0.000000
vt -0.112981 1.000000
vt 0.000032 0.000000
vt 0.000032 1.000000
vt 0.085979 0.000000
vt 0.085979 1.000000
vt 0.152075 0.000000
vt 0.152075 1.000000
vt 0.205233 0.000000
vt 0.205233 1.000000
vt 1.250032 0.000000
vt 1.250032 1.000000
vt 0.541698 0.000000
vt 0.375032 1.000000
vn -0.000000 -1.000000 0.000000
vn 0.000000 -1.000000 0.000000
vn 0.000001 -1.000000 -0.000000
vn -0.000000 -1.000000 0.000000
vn -0.000000 -1.000000 0.000000
vn -0.000000 -1.000000 0.000000
vn -0.000000 -1.000000 0.000000
vn -0.000000 -1.000000 0.000000
vn -0.000000 -1.000000 0.000000
vn -0.000000 -1.000000 0.000000
vn -0.000000 -1.000000 0.000000
vn -0.000000 -1.000000 0.000000
vn -0.000000 -1.000000 0.000000
vn -0.000000 -1.000000 0.000000
vn -0.000000 -1.000000 0.000000
vn -0.000000 -1.000000 -0.000000
vn -0.000000 -1.000000 -0.000000
vn -0.000000 -1.000000 -0.000000
vn -0.000000 -1.000000 -0.000000
vn -0.000000 -1.000000 -0.000000
vn -0.000000 -1.000000 -0.000000
vn -0.000000 -1.000000 -0.000000
vn -0.000000 -1.000000 -0.000000
vn -0.000000 -1.000000 -0.000000
vn -0.000000 -1.000000 0.000000
vn -0.000000 -1.000000 0.000000
vn -0.000001 1.000000 0.000000
vn -0.000000 1.000000 -0.000001
vn -0.000000 1.000000 -0.000001
vn -0.000000 1.000000 -0.000001
vn -0.000001 1.000000 -0.000002
vn -0.000001 1.000000 -0.000001
vn -0.000001 1.000000 0.000000
vn -0.000001 1.000000 0.000000
vn -0.000001 1.000000 0.000000
vn -0.000001 1.000000 0.000000
vn -0.000001 1.000000 0.000000
vn -0.000001 1.000000 0.000002
vn -0.000001 1.000000 -0.000000
vn -0.000001 1.000000 -0.000000
vn -0.000001 1.000000 -0.000000
vn -0.000001 1.000000 -0.000002
vn -0.000001 1.000000 0.000001
vn -0.000001 1.000000 0.000001
vn -0.000001 1.000000 0.000000
vn -0.000001 1.000000 0.000000
vn -0.000001 1.000000 0.000002
vn -0.000000 1.000000 0.000002
vn -0.000000 1.000000 0.000000
vn -0.000000 1.000000 0.000001
vn -0.000000 1.000000 0.000001
vn -0.000000 1.000000 -0.000001
vn -1.000000 0.000000 -0.000001
vn -1.000000 0.000000 -0.000001
vn -1.000000 -0.000000 -0.000001
vn -1.000000 -0.000000 -0.000001
vn -1.000000 0.000000 -0.000000
vn -1.000000 0.000000 -0.000000
s 1
g pCylinder13
usemtl initialShadingGroup
f 51/51/1 2/2/2 1/1/3
f 51/51/1 49/49/4 47/47/5
f 51/51/1 47/47/5 45/45/6
f 51/51/1 45/45/6 43/43/7
f 51/51/1 43/43/7 41/41/8
f 51/51/1 41/41/8 39/39/9
f 51/51/1 39/39/9 37/37/10
f 51/51/1 37/37/10 35/34/11
f 51/51/1 35/34/11 33/33/12
f 51/51/1 33/33/12 31/31/13
f 51/51/1 31/31/13 29/29/14
f 51/51/1 29/29/14 26/26/15
f 51/51/1 26/26/15 25/25/16
f 51/51/1 25/25/16 23/21/17
f 51/51/1 23/21/17 21/19/18
f 51/51/1 21/19/18 19/17/19
f 51/51/1 19/17/19 17/15/20
f 51/51/1 17/15/20 15/13/21
f 51/51/1 15/13/21 13/11/22
f 51/51/1 13/11/22 11/9/23
f 51/51/1 11/9/23 9/24/24
f 51/51/1 9/24/24 7/23/25
f 51/51/1 7/23/25 5/5/26
f 51/51/1 5/5/26 2/2/2
s 3
f 52/52/27 4/3/28 6/6/29
f 52/52/27 6/6/29 8/7/30
f 52/52/27 8/7/30 10/8/31
f 52/52/27 10/8/31 12/10/32
f 52/52/27 12/10/32 14/12/33
f 52/52/27 14/12/33 16/14/34
f 52/52/27 16/14/34 18/16/35
f 52/52/27 18/16/35 20/18/36
f 52/52/27 20/18/36 22/20/37
f 52/52/27 22/20/37 24/22/38
f 52/52/27 24/22/38 27/28/39
f 52/52/27 27/28/39 28/27/40
f 52/52/27 28/27/40 30/30/41
f 52/52/27 30/30/41 32/32/42
f 52/52/27 32/32/42 34/36/43
f 52/52/27 34/36/43 36/35/44
f 52/52/27 36/35/44 38/38/45
f 52/52/27 38/38/45 40/40/46
f 52/52/27 40/40/46 42/42/47
f 52/52/27 42/42/47 44/44/48
f 52/52/27 44/44/48 46/46/49
f 52/52/27 46/46/49 48/48/50
f 52/52/27 48/48/50 50/50/51
f 52/52/27 3/4/52 4/3/28
s 4
f 51/51/53 52/52/54 50/50/55 49/49/56
f 3/4/57 52/52/54 51/51/53 1/1/58
g default
v -0.000001 0.000000 1.000001
v 0.130525 0.000000 0.991446
v -0.000001 2.500000 1.000001
v 0.130525 2.500000 0.991446
v 0.258818 0.000000 0.965927
v 0.258818 2.500000 0.965927
v 0.382683 0.000000 0.923880
v 0.382683 2.500000 0.923880
v 0.499999 0.000000 0.866026
v 0.499999 2.500000 0.866026
v 0.608761 0.000000 0.793354
v 0.608761 2.500000 0.793354
v 0.707106 0.000000 0.707107
v 0.707106 2.500000 0.707107
v 0.793353 0.000000 0.608762
v 0.793353 2.500000 0.608762
v 0.866025 0.000000 0.500000
v 0.866025 2.500000 0.500000
v 0.923879 0.000000 0.382684
v 0.923879 2.500000 0.382684
v 0.965926 0.000000 0.258819
v 0.965926 2.500000 0.258819
v 0.991445 0.000000 0.130526
v 0.991445 2.500000 0.130526
v 1.000000 0.000000 -0.000000
v 0.991445 0.000000 -0.130527
v 1.000000 2.500000 -0.000000
v 0.991445 2.500000 -0.130527
v 0.965926 0.000000 -0.258820
v 0.965926 2.500000 -0.258820
v 0.923880 0.000000 -0.382684
v 0.923880 2.500000 -0.382684
v 0.866025 0.000000 -0.500001
v 0.866025 2.500000 -0.500001
v 0.793353 0.000000 -0.608762
v 0.793353 2.500000 -0.608762
v 0.707107 0.000000 -0.707108
v 0.707107 2.500000 -0.707108
v 0.608761 0.000000 -0.793355
v 0.608761 2.500000 -0.793355
v 0.500000 0.000000 -0.866027
v 0.500000 2.500000 -0.866027
v 0.382683 0.000000 -0.923881
v 0.382683 2.500000 -0.923881
v 0.258818 0.000000 -0.965927
v 0.258818 2.500000 -0.965927
v 0.130526 0.000000 -0.991446
v 0.130525 2.500000 -0.991446
v 0.000000 0.000000 -1.000001
v 0.000000 2.500000 -1.000001
vt 1.250032 0.000000
vt 1.294830 0.000000
vt 1.294830 1.000000
vt 1.250032 1.000000
vt 1.347988 0.000000
vt 1.347988 1.000000
vt 1.414085 1.000000
vt -0.499968 0.000000
vt -0.499968 1.000000
vt -0.386955 0.000000
vt -0.386955 1.000000
vt -0.249968 0.000000
vt -0.249968 1.000000
vt -0.112981 0.000000
vt -0.112981 1.000000
vt 0.000032 0.000000
vt 0.000032 1.000000
vt 0.085979 0.000000
vt 0.085979 1.000000
vt 0.152075 0.000000
vt 0.152075 1.000000
vt 0.205233 0.000000
vt 0.205233 1.000000
vt 1.414085 0.000000
vt 1.500032 0.000000
vt 1.500032 1.000000
vt 1.250032 0.000000
vt 1.294830 0.000000
vt 1.294830 1.000000
vt 1.250032 1.000000
vt 1.347988 0.000000
vt 1.347988 1.000000
vt 1.414085 0.000000
vt 1.414085 1.000000
vt 1.500032 0.000000
vt 1.500032 1.000000
vt -0.499968 0.000000
vt -0.386955 0.000000
vt -0.386955 1.000000
vt -0.499968 1.000000
vt -0.249968 0.000000
vt -0.249968 1.000000
vt -0.112981 0.000000
vt -0.112981 1.000000
vt 0.000032 0.000000
vt 0.000032 1.000000
vt 0.085979 0.000000
vt 0.085979 1.000000
vt 0.152075 0.000000
vt 0.152075 1.000000
vt 0.205233 0.000000
vt 0.205233 1.000000
vt 1.250032 0.000000
vt 1.250032 1.000000
vn 0.065405 0.000000 0.997859
vn 0.130527 0.000000 0.991445
vn 0.130527 0.000000 0.991445
vn 0.065405 0.000000 0.997859
vn 0.258819 0.000000 0.965926
vn 0.258819 0.000000 0.965926
vn 0.382683 0.000000 0.923880
vn 0.382683 0.000000 0.923880
vn 0.500000 0.000000 0.866026
vn 0.500000 0.000000 0.866026
vn 0.608761 0.000000 0.793354
vn 0.608761 0.000000 0.793354
vn 0.707107 0.000000 0.707107
vn 0.707107 0.000000 0.707107
vn 0.793353 0.000000 0.608761
vn 0.793353 0.000000 0.608761
vn 0.866026 0.000000 0.500000
vn 0.866026 0.000000 0.500000
vn 0.923880 0.000000 0.382684
vn 0.923880 0.000000 0.382684
vn 0.965926 0.000000 0.258819
vn 0.965926 0.000000 0.258819
vn 0.991445 0.000000 0.130527
vn 0.991445 0.000000 0.130527
vn 1.000000 -0.000000 0.000001
vn 0.991445 -0.000000 -0.130527
vn 0.991445 -0.000000 -0.130527
vn 1.000000 -0.000000 0.000001
vn 0.965926 0.000000 -0.258819
vn 0.965926 0.000000 -0.258819
vn 0.923880 0.000000 -0.382683
vn 0.923880 0.000000 -0.382683
vn 0.866026 0.000000 -0.500000
vn 0.866026 0.000000 -0.500000
vn 0.793354 0.000000 -0.608761
vn 0.793354 0.000000 -0.608761
vn 0.707107 0.000000 -0.707107
vn 0.707107 0.000000 -0.707107
vn 0.608762 0.000000 -0.793353
vn 0.608762 0.000000 -0.793353
vn 0.500000 0.000000 -0.866026
vn 0.500000 0.000000 -0.866026
vn 0.382683 0.000000 -0.923880
vn 0.382683 0.000000 -0.923880
vn 0.258819 0.000000 -0.965926
vn 0.258819 0.000000 -0.965926
vn 0.130526 0.000000 -0.991445
vn 0.130526 0.000000 -0.991445
vn 0.065403 0.000000 -0.997859
vn 0.065403 0.000000 -0.997859
s 1
g pCylinder14
usemtl initialShadingGroup
f 53/53/59 54/54/60 56/55/61 55/56/62
f 54/54/60 57/57/63 58/58/64 56/55/61
f 57/57/63 59/76/65 60/59/66 58/58/64
f 59/76/65 61/77/67 62/78/68 60/59/66
f 61/60/67 63/62/69 64/63/70 62/61/68
f 63/62/69 65/64/71 66/65/72 64/63/70
f 65/64/71 67/66/73 68/67/74 66/65/72
f 67/66/73 69/68/75 70/69/76 68/67/74
f 69/68/75 71/70/77 72/71/78 70/69/76
f 71/70/77 73/72/79 74/73/80 72/71/78
f 73/72/79 75/74/81 76/75/82 74/73/80
f 77/79/83 78/80/84 80/81/85 79/82/86
f 78/80/84 81/83/87 82/84/88 80/81/85
f 81/83/87 83/85/89 84/86/90 82/84/88
f 83/85/89 85/87/91 86/88/92 84/86/90
f 85/89/91 87/90/93 88/91/94 86/92/92
f 87/90/93 89/93/95 90/94/96 88/91/94
f 89/93/95 91/95/97 92/96/98 90/94/96
f 91/95/97 93/97/99 94/98/100 92/96/98
f 93/97/99 95/99/101 96/100/102 94/98/100
f 95/99/101 97/101/103 98/102/104 96/100/102
f 97/101/103 99/103/105 100/104/106 98/102/104
f 76/75/82 75/74/81 77/79/83 79/82/86
f 100/104/106 99/103/105 101/105/107 102/106/108
