# This file uses centimeters as units for non-parametric coordinates.

mtllib cilinderhalf.mtl
g default
v 0.000000 0.000000 -1.500002
v -0.195789 0.000000 -1.487169
v 0.000000 3.750000 -1.500002
v -0.195789 3.750000 -1.487169
v -0.388229 0.000000 -1.448890
v -0.388229 3.750000 -1.448890
v -0.574026 0.000000 -1.385821
v -0.574026 3.750000 -1.385821
v -0.750001 0.000000 -1.299040
v -0.750001 3.750000 -1.299040
v -0.913143 0.000000 -1.190031
v -0.913143 3.750000 -1.190031
v -1.060661 0.000000 -1.060662
v -1.060661 3.750000 -1.060662
v -1.190031 0.000000 -0.913143
v -1.190031 3.750000 -0.913143
v -1.299039 0.000000 -0.750001
v -1.299039 3.750000 -0.750001
v -1.385821 0.000000 -0.574026
v -1.385821 3.750000 -0.574026
v -1.448890 0.000000 -0.388229
v -1.448890 3.750000 -0.388229
v -1.487169 0.000000 -0.195790
v -1.487169 3.750000 -0.195790
v -1.500001 0.000000 -0.000000
v -1.500001 3.750000 -0.000000
v -1.487169 0.000000 0.195789
v -1.487169 3.750000 0.195789
v -1.448890 0.000000 0.388229
v -1.448890 3.750000 0.388229
v -1.385820 0.000000 0.574025
v -1.385820 3.750000 0.574025
v -1.299039 0.000000 0.750000
v -1.299039 3.750000 0.750000
v -1.190031 0.000000 0.913143
v -1.190031 3.750000 0.913143
v -1.060661 0.000000 1.060661
v -1.060661 3.750000 1.060661
v -0.913143 0.000000 1.190031
v -0.913143 3.750000 1.190031
v -0.750001 0.000000 1.299039
v -0.750001 3.750000 1.299039
v -0.574026 0.000000 1.385820
v -0.574026 3.750000 1.385820
v -0.388229 0.000000 1.448890
v -0.388229 3.750000 1.448890
v -0.195790 0.000000 1.487168
v -0.195790 3.750000 1.487168
v -0.000000 0.000000 1.500001
v -0.000000 3.750000 1.500001
vt 0.000032 0.000000
vt 0.041698 0.000000
vt 0.041698 1.000000
vt 0.000032 1.000000
vt 0.083365 0.000000
vt 0.083365 1.000000
vt 0.125032 0.000000
vt 0.125032 1.000000
vt 0.166699 0.000000
vt 0.166699 1.000000
vt 0.208365 0.000000
vt 0.208365 1.000000
vt 0.250032 0.000000
vt 0.250032 1.000000
vt 0.291699 0.000000
vt 0.291699 1.000000
vt 0.333365 0.000000
vt 0.333365 1.000000
vt 0.375032 0.000000
vt 0.375032 1.000000
vt 0.416699 0.000000
vt 0.416699 1.000000
vt 0.458365 0.000000
vt 0.458365 1.000000
vt 0.500032 0.000000
vt 0.500032 1.000000
vt 0.541699 0.000000
vt 0.541699 1.000000
vt 0.583365 0.000000
vt 0.583365 1.000000
vt 0.625032 0.000000
vt 0.625032 1.000000
vt 0.666699 0.000000
vt 0.666699 1.000000
vt 0.708365 0.000000
vt 0.708365 1.000000
vt 0.750032 0.000000
vt 0.750032 1.000000
vt 0.791699 0.000000
vt 0.791699 1.000000
vt 0.833365 0.000000
vt 0.833365 1.000000
vt 0.875032 0.000000
vt 0.875032 1.000000
vt 0.916699 0.000000
vt 0.916699 1.000000
vt 0.958365 0.000000
vt 0.958365 1.000000
vt 1.000032 0.000000
vt 1.000032 1.000000
vn -0.065404 -0.000000 -0.997859
vn -0.130526 -0.000000 -0.991445
vn -0.130526 -0.000000 -0.991445
vn -0.065404 -0.000000 -0.997859
vn -0.258819 0.000000 -0.965926
vn -0.258819 0.000000 -0.965926
vn -0.382683 0.000000 -0.923880
vn -0.382683 0.000000 -0.923880
vn -0.500000 0.000000 -0.866025
vn -0.500000 0.000000 -0.866025
vn -0.608761 0.000000 -0.793354
vn -0.608761 0.000000 -0.793354
vn -0.707107 0.000000 -0.707107
vn -0.707107 0.000000 -0.707107
vn -0.793353 0.000000 -0.608761
vn -0.793353 0.000000 -0.608761
vn -0.866026 0.000000 -0.500000
vn -0.866026 0.000000 -0.500000
vn -0.923880 0.000000 -0.382684
vn -0.923880 0.000000 -0.382684
vn -0.965926 0.000000 -0.258819
vn -0.965926 0.000000 -0.258819
vn -0.991445 0.000000 -0.130525
vn -0.991445 0.000000 -0.130525
vn -1.000000 0.000000 0.000000
vn -1.000000 0.000000 0.000000
vn -0.991445 0.000000 0.130526
vn -0.991445 0.000000 0.130526
vn -0.965926 0.000000 0.258819
vn -0.965926 0.000000 0.258819
vn -0.923880 0.000000 0.382683
vn -0.923880 0.000000 0.382683
vn -0.866025 0.000000 0.500000
vn -0.866025 0.000000 0.500000
vn -0.793353 0.000000 0.608761
vn -0.793353 0.000000 0.608761
vn -0.707107 0.000000 0.707107
vn -0.707107 0.000000 0.707107
vn -0.608761 0.000000 0.793354
vn -0.608761 0.000000 0.793354
vn -0.500000 0.000000 0.866025
vn -0.500000 0.000000 0.866025
vn -0.382684 0.000000 0.923880
vn -0.382684 0.000000 0.923880
vn -0.258819 0.000000 0.965926
vn -0.258819 0.000000 0.965926
vn -0.130526 0.000000 0.991445
vn -0.130526 0.000000 0.991445
vn -0.065403 0.000000 0.997859
vn -0.065403 0.000000 0.997859
s 1
g pCylinder3
usemtl initialShadingGroup
f 1/1/1 2/2/2 4/3/3 3/4/4
f 2/2/2 5/5/5 6/6/6 4/3/3
f 5/5/5 7/7/7 8/8/8 6/6/6
f 7/7/7 9/9/9 10/10/10 8/8/8
f 9/9/9 11/11/11 12/12/12 10/10/10
f 11/11/11 13/13/13 14/14/14 12/12/12
f 13/13/13 15/15/15 16/16/16 14/14/14
f 15/15/15 17/17/17 18/18/18 16/16/16
f 17/17/17 19/19/19 20/20/20 18/18/18
f 19/19/19 21/21/21 22/22/22 20/20/20
f 21/21/21 23/23/23 24/24/24 22/22/22
f 23/23/23 25/25/25 26/26/26 24/24/24
f 25/25/25 27/27/27 28/28/28 26/26/26
f 27/27/27 29/29/29 30/30/30 28/28/28
f 29/29/29 31/31/31 32/32/32 30/30/30
f 31/31/31 33/33/33 34/34/34 32/32/32
f 33/33/33 35/35/35 36/36/36 34/34/34
f 35/35/35 37/37/37 38/38/38 36/36/36
f 37/37/37 39/39/39 40/40/40 38/38/38
f 39/39/39 41/41/41 42/42/42 40/40/40
f 41/41/41 43/43/43 44/44/44 42/42/42
f 43/43/43 45/45/45 46/46/46 44/44/44
f 45/45/45 47/47/47 48/48/48 46/46/46
f 47/47/47 49/49/49 50/50/50 48/48/48
g default
v 0.000000 0.000000 -1.500002
v -0.195789 0.000000 -1.487169
v -0.388229 0.000000 -1.448890
v -0.574026 0.000000 -1.385821
v -0.750001 0.000000 -1.299040
v -0.913143 0.000000 -1.190031
v -1.060661 0.000000 -1.060662
v -1.190031 0.000000 -0.913143
v -1.299039 0.000000 -0.750001
v -1.385821 0.000000 -0.574026
v -1.448890 0.000000 -0.388229
v -1.487169 0.000000 -0.195790
v -1.500001 0.000000 -0.000000
v -1.487169 0.000000 0.195789
v -1.448890 0.000000 0.388229
v -1.385820 0.000000 0.574025
v -1.299039 0.000000 0.750000
v -1.190031 0.000000 0.913143
v -1.060661 0.000000 1.060661
v -0.913143 0.000000 1.190031
v -0.750001 0.000000 1.299039
v -0.574026 0.000000 1.385820
v -0.388229 0.000000 1.448890
v -0.195790 0.000000 1.487168
v -0.000000 0.000000 1.500001
v 0.000000 3.750000 -1.500002
v -0.195789 3.750000 -1.487169
v -0.388229 3.750000 -1.448890
v -0.574026 3.750000 -1.385821
v -0.750001 3.750000 -1.299040
v -0.913143 3.750000 -1.190031
v -1.060661 3.750000 -1.060662
v -1.190031 3.750000 -0.913143
v -1.299039 3.750000 -0.750001
v -1.385821 3.750000 -0.574026
v -1.448890 3.750000 -0.388229
v -1.487169 3.750000 -0.195790
v -1.500001 3.750000 -0.000000
v -1.487169 3.750000 0.195789
v -1.448890 3.750000 0.388229
v -1.385820 3.750000 0.574025
v -1.299039 3.750000 0.750000
v -1.190031 3.750000 0.913143
v -1.060661 3.750000 1.060661
v -0.913143 3.750000 1.190031
v -0.750001 3.750000 1.299039
v -0.574026 3.750000 1.385820
v -0.388229 3.750000 1.448890
v -0.195790 3.750000 1.487168
v -0.000000 3.750000 1.500001
v -0.000000 -0.000000 0.000000
v -0.000000 3.750000 0.000000
vt 0.500000 -0.000000
vt 0.479605 0.001337
vt 0.459560 0.005324
vt 0.440206 0.011894
vt 0.421875 0.020933
vt 0.404881 0.032288
vt 0.389514 0.045764
vt 0.376038 0.061131
vt 0.364683 0.078125
vt 0.355644 0.096456
vt 0.349074 0.115809
vt 0.345087 0.135855
vt 0.343750 0.156250
vt 0.345087 0.176645
vt 0.349074 0.196690
vt 0.355644 0.216044
vt 0.364683 0.234375
vt 0.376038 0.251369
vt 0.389514 0.266735
vt 0.404881 0.280212
vt 0.421875 0.291567
vt 0.440206 0.300606
vt 0.459560 0.307176
vt 0.479605 0.311163
vt 0.500000 0.312500
vt 0.500000 0.687500
vt 0.479605 0.688837
vt 0.459560 0.692824
vt 0.440206 0.699394
vt 0.421875 0.708433
vt 0.404881 0.719788
vt 0.389514 0.733264
vt 0.376038 0.748631
vt 0.364683 0.765625
vt 0.355644 0.783956
vt 0.349074 0.803309
vt 0.345087 0.823355
vt 0.343750 0.843750
vt 0.345087 0.864145
vt 0.349074 0.884190
vt 0.355644 0.903544
vt 0.364683 0.921875
vt 0.376038 0.938869
vt 0.389514 0.954235
vt 0.404881 0.967712
vt 0.421875 0.979067
vt 0.440206 0.988106
vt 0.459560 0.994676
vt 0.479605 0.998663
vt 0.500000 1.000000
vt 0.500000 0.150000
vt 0.500000 0.837500
vn -0.000000 -1.000000 -0.000000
vn -0.000000 -1.000000 -0.000000
vn -0.000000 -1.000000 -0.000000
vn -0.000000 -1.000000 -0.000000
vn -0.000000 -1.000000 -0.000000
vn -0.000000 -1.000000 -0.000000
vn -0.000000 -1.000000 0.000000
vn -0.000000 -1.000000 0.000000
vn -0.000000 -1.000000 0.000000
vn -0.000000 -1.000000 0.000000
vn -0.000000 -1.000000 0.000000
vn -0.000000 -1.000000 0.000000
vn -0.000000 -1.000000 0.000000
vn -0.000000 -1.000000 0.000000
vn -0.000000 -1.000000 -0.000001
vn -0.000000 -1.000000 -0.000000
vn -0.000000 -1.000000 0.000001
vn -0.000000 -1.000000 0.000000
vn -0.000000 -1.000000 0.000000
vn -0.000000 -1.000000 -0.000000
vn -0.000000 -1.000000 -0.000000
vn -0.000000 -1.000000 0.000000
vn -0.000000 -1.000000 0.000000
vn -0.000000 -1.000000 0.000000
vn -0.000000 -1.000000 0.000000
vn -0.000000 -1.000000 0.000000
vn 0.000000 1.000000 0.000000
vn 0.000000 1.000000 0.000000
vn 0.000000 1.000000 0.000000
vn 0.000000 1.000000 0.000000
vn 0.000000 1.000000 0.000000
vn 0.000000 1.000000 0.000000
vn 0.000000 1.000000 0.000000
vn 0.000000 1.000000 0.000000
vn 0.000000 1.000000 0.000000
vn 0.000000 1.000000 0.000000
vn 0.000000 1.000000 0.000000
vn 0.000000 1.000000 0.000000
vn 0.000000 1.000000 0.000000
vn 0.000000 1.000000 0.000000
vn 0.000000 1.000000 0.000000
vn 0.000000 1.000000 0.000001
vn 0.000000 1.000000 0.000000
vn 0.000000 1.000000 -0.000001
vn 0.000000 1.000000 -0.000000
vn 0.000000 1.000000 -0.000000
vn 0.000000 1.000000 0.000000
vn 0.000000 1.000000 -0.000000
vn 0.000000 1.000000 -0.000000
vn 0.000000 1.000000 0.000000
vn 0.000000 1.000000 -0.000000
vn 0.000000 1.000000 -0.000000
vn 1.000000 0.000000 -0.000000
vn 1.000000 0.000000 -0.000000
vn 1.000000 0.000000 -0.000000
vn 1.000000 0.000000 -0.000000
vn 1.000000 0.000000 0.000000
vn 1.000000 0.000000 0.000000
vn 1.000000 0.000000 0.000000
vn 1.000000 0.000000 0.000000
s 1
g pCylinder4
usemtl initialShadingGroup
f 52/52/51 51/51/52 101/101/53
f 53/53/54 52/52/51 101/101/53
f 54/54/55 53/53/54 101/101/53
f 55/55/56 54/54/55 101/101/53
f 56/56/57 55/55/56 101/101/53
f 57/57/58 56/56/57 101/101/53
f 58/58/59 57/57/58 101/101/53
f 59/59/60 58/58/59 101/101/53
f 60/60/61 59/59/60 101/101/53
f 61/61/62 60/60/61 101/101/53
f 62/62/63 61/61/62 101/101/53
f 63/63/64 62/62/63 101/101/53
f 64/64/65 63/63/64 101/101/53
f 65/65/66 64/64/65 101/101/53
f 66/66/67 65/65/66 101/101/53
f 67/67/68 66/66/67 101/101/53
f 68/68/69 67/67/68 101/101/53
f 69/69/70 68/68/69 101/101/53
f 70/70/71 69/69/70 101/101/53
f 71/71/72 70/70/71 101/101/53
f 72/72/73 71/71/72 101/101/53
f 73/73/74 72/72/73 101/101/53
f 74/74/75 73/73/74 101/101/53
f 75/75/76 74/74/75 101/101/53
s 2
f 76/100/77 77/99/78 102/102/79
f 77/99/78 78/98/80 102/102/79
f 78/98/80 79/97/81 102/102/79
f 79/97/81 80/96/82 102/102/79
f 80/96/82 81/95/83 102/102/79
f 81/95/83 82/94/84 102/102/79
f 82/94/84 83/93/85 102/102/79
f 83/93/85 84/92/86 102/102/79
f 84/92/86 85/91/87 102/102/79
f 85/91/87 86/90/88 102/102/79
f 86/90/88 87/89/89 102/102/79
f 87/89/89 88/88/90 102/102/79
f 88/88/90 89/87/91 102/102/79
f 89/87/91 90/86/92 102/102/79
f 90/86/92 91/85/93 102/102/79
f 91/85/93 92/84/94 102/102/79
f 92/84/94 93/83/95 102/102/79
f 93/83/95 94/82/96 102/102/79
f 94/82/96 95/81/97 102/102/79
f 95/81/97 96/80/98 102/102/79
f 96/80/98 97/79/99 102/102/79
f 97/79/99 98/78/100 102/102/79
f 98/78/100 99/77/101 102/102/79
f 99/77/101 100/76/102 102/102/79
s off
f 75/75/103 101/101/104 102/102/105 100/76/106
f 101/101/107 51/51/108 76/100/109 102/102/110
